{
	"asset":{
		"generator":"Khronos glTF Blender I/O v3.6.28",
		"version":"2.0"
	},
	"extensionsUsed":[
		"KHR_materials_specular",
		"KHR_materials_ior"
	],
	"scene":0,
	"scenes":[
		{
			"name":"Scene",
			"nodes":[
				0
			]
		}
	],
	"nodes":[
		{
			"mesh":0,
			"name":"barrel_1"
		}
	],
	"materials":[
		{
			"alphaCutoff":0.5,
			"alphaMode":"MASK",
			"doubleSided":true,
			"extensions":{
				"KHR_materials_specular":{
					"specularColorFactor":[
						0,
						0,
						0
					]
				},
				"KHR_materials_ior":{
					"ior":1.4500000476837158
				}
			},
			"name":"barrel_1_barrel",
			"pbrMetallicRoughness":{
				"baseColorTexture":{
					"index":0
				},
				"metallicFactor":0,
				"roughnessFactor":0.5
			}
		}
	],
	"meshes":[
		{
			"name":"barrel_1",
			"primitives":[
				{
					"attributes":{
						"POSITION":0,
						"NORMAL":1,
						"TEXCOORD_0":2
					},
					"indices":3,
					"material":0
				}
			]
		}
	],
	"textures":[
		{
			"sampler":0,
			"source":0
		}
	],
	"images":[
		{
			"mimeType":"image/png",
			"name":"barrel_diffuse",
			"uri":"barrel_diffuse.jpg"
		}
	],
	"accessors":[
		{
			"bufferView":0,
			"componentType":5126,
			"count":2617,
			"max":[
				0.3714224696159363,
				0.9161207675933838,
				0.37124720215797424
			],
			"min":[
				-0.3700158894062042,
				0.0003136522718705237,
				-0.3714224100112915
			],
			"type":"VEC3"
		},
		{
			"bufferView":1,
			"componentType":5126,
			"count":2617,
			"type":"VEC3"
		},
		{
			"bufferView":2,
			"componentType":5126,
			"count":2617,
			"type":"VEC2"
		},
		{
			"bufferView":3,
			"componentType":5123,
			"count":11262,
			"type":"SCALAR"
		}
	],
	"bufferViews":[
		{
			"buffer":0,
			"byteLength":31404,
			"byteOffset":0,
			"target":34962
		},
		{
			"buffer":0,
			"byteLength":31404,
			"byteOffset":31404,
			"target":34962
		},
		{
			"buffer":0,
			"byteLength":20936,
			"byteOffset":62808,
			"target":34962
		},
		{
			"buffer":0,
			"byteLength":22524,
			"byteOffset":83744,
			"target":34963
		}
	],
	"samplers":[
		{
			"magFilter":9729,
			"minFilter":9987
		}
	],
	"buffers":[
		{
			"byteLength":106268,
			"uri":"barrel_1.bin"
		}
	]
}
